<svg width="64" height="64" fill="none" xmlns="http://www.w3.org/2000/svg">
  <path fill="#F5F7F9" d="M0 0h64v64H0z"/>
  <path d="M14.531 44.05c10.78.577 18.079.866 21.895.866.905 0 1.613-.25 2.125-.751.55-.54.826-1.251.826-2.137v-5.197H25.803c-4.13 0-7.14-.905-9.03-2.714C14.926 32.269 14 29.324 14 25.282v-1.733c0-4.042.925-6.968 2.774-8.777C18.662 12.924 21.672 12 25.804 12h20.714v8.084H28.164c-2.36 0-3.541 1.155-3.541 3.465v1.155c0 2.31 1.18 3.465 3.54 3.465h10.624c3.856 0 6.688.886 8.498 2.656C49.095 32.596 50 35.368 50 39.141v2.887c0 3.773-.905 6.545-2.715 8.316-1.81 1.77-4.642 2.656-8.498 2.656-2.007 0-4.131-.038-6.374-.115l-5.43-.231a382.337 382.337 0 01-12.452-.809V44.05z" fill="#232C40"/>
</svg>
