<svg width="102" height="15" viewBox="0 0 102 15" fill="none" xmlns="http://www.w3.org/2000/svg">
    <path d="M0.184302 11.5701C3.92496 11.7749 6.45741 11.8773 7.78165 11.8773C8.09565 11.8773 8.34138 11.7885 8.51886 11.611C8.70999 11.4199 8.80555 11.1674 8.80555 10.8534V9.01033H4.09561C2.66214 9.01033 1.61776 8.68951 0.962467 8.04787C0.320822 7.39257 0 6.34819 0 4.91473V4.30039C0 2.86692 0.320822 1.82937 0.962467 1.18773C1.61776 0.532429 2.66214 0.20478 4.09561 0.20478H11.2834V3.07171H4.91473C4.09561 3.07171 3.68605 3.48127 3.68605 4.30039V4.70995C3.68605 5.52907 4.09561 5.93863 4.91473 5.93863H8.60077C9.93867 5.93863 10.9216 6.25263 11.5496 6.88062C12.1776 7.50861 12.4916 8.49156 12.4916 9.82945V10.8534C12.4916 12.1913 12.1776 13.1742 11.5496 13.8022C10.9216 14.4302 9.93867 14.7442 8.60077 14.7442C7.90452 14.7442 7.16731 14.7305 6.38915 14.7032L4.50517 14.6213C3.11266 14.5531 1.67237 14.4575 0.184302 14.3346V11.5701Z" fill="#141C2C"/>
    <path d="M24.4385 4.09561C24.4385 3.27648 24.0289 2.86692 23.2098 2.86692H19.7285C18.9094 2.86692 18.4999 3.27648 18.4999 4.09561V10.6486C18.4999 11.4677 18.9094 11.8773 19.7285 11.8773H23.2098C24.0289 11.8773 24.4385 11.4677 24.4385 10.6486V4.09561ZM28.1245 10.6486C28.1245 12.082 27.7969 13.1264 27.1416 13.7817C26.4999 14.4234 25.4624 14.7442 24.0289 14.7442H18.9094C17.476 14.7442 16.4316 14.4234 15.7763 13.7817C15.1346 13.1264 14.8138 12.082 14.8138 10.6486V4.09561C14.8138 2.66214 15.1346 1.62459 15.7763 0.982945C16.4316 0.327648 17.476 0 18.9094 0H24.0289C25.4624 0 26.4999 0.327648 27.1416 0.982945C27.7969 1.62459 28.1245 2.66214 28.1245 4.09561V10.6486Z" fill="#141C2C"/>
    <path d="M36.7133 10.239L40.1946 0.20478H44.1878L38.7611 14.5394H34.6655L29.2389 0.20478H33.2321L36.7133 10.239Z" fill="#141C2C"/>
    <path d="M59.9904 0.20478H68.5911C70.0246 0.20478 71.0622 0.532429 71.7038 1.18773C72.3591 1.82937 72.6867 2.86692 72.6867 4.30039V6.14341C72.6867 7.27653 72.4956 8.15708 72.1134 8.78508C71.7448 9.41307 71.1509 9.82945 70.3318 10.0342L72.8915 14.5394H68.8983L66.5433 10.239H63.6764V14.5394H59.9904V0.20478ZM69.0007 4.30039C69.0007 3.48127 68.5911 3.07171 67.772 3.07171H63.6764V7.37209H67.772C68.5911 7.37209 69.0007 6.96253 69.0007 6.14341V4.30039Z" fill="#141C2C"/>
    <path d="M102 14.5394H98.1092L93.1945 5.93863V14.5394H89.5084V0.20478H93.3992L98.314 8.80555V0.20478H102V14.5394Z" fill="#141C2C"/>
    <path d="M57.4665 3.32101H46.1012V0.20479H57.4665V3.32101Z" fill="#141C2C"/>
    <path d="M86.8759 3.32101H75.5106V0.20479H86.8759V3.32101Z" fill="#141C2C"/>
    <path d="M57.4665 8.9302H46.1012V5.81398H57.4665V8.9302Z" fill="#141C2C"/>
    <path d="M86.8759 8.9302H75.5106V5.81398H86.8759V8.9302Z" fill="#141C2C"/>
    <path d="M57.4665 14.5394H46.1012V11.4232H57.4665V14.5394Z" fill="#141C2C"/>
    <path d="M86.8759 14.5394H75.5106V11.4232H86.8759V14.5394Z" fill="#141C2C"/>
</svg>
